<svg xmlns="http://www.w3.org/2000/svg" viewBox="0 0 875.91 256.39"><defs><style>.cls-1{fill:#ed4137;}.cls-2{fill:#feae3d;}.cls-3{fill:#fff;}</style></defs><g id="Capa_2" data-name="Capa 2"><g id="Capa_1-2" data-name="Capa 1"><path class="cls-1" d="M45.35,181c-4.91,1.8-10.12,3.07-14.66,5.56-4.3,2.37-7.24,2-10.52-1.43-5.62-5.92-11.52-11.56-17.23-17.39-4-4-3.93-6,.12-10.08Q80.24,80.41,157.44,3.21C161.66-1,163.79-1.06,167.92,3c5.93,5.84,11.72,11.84,17.71,17.62,3.21,3.09,3.32,5.92,1,9.69-7.4,12-5.75,26.13,3.83,35.78A28.35,28.35,0,0,0,225.81,70c4.24-2.63,7.19-2.13,10.47,1.33,5.5,5.8,11.28,11.33,16.9,17,4.24,4.29,4.33,6.4.23,10.5Q176.22,176,99,253.2c-4.22,4.21-6.3,4.25-10.49.14-5.83-5.71-11.47-11.61-17.37-17.25-3.49-3.34-3.68-6.34-1.07-10.51,6-9.56,6-19.67.43-29.37C65.11,186.85,56.64,182.15,45.35,181ZM106.2,214.4c2.21-1.49,4.49-2.54,6.16-4.21Q161,161.7,209.58,113.05c5.63-5.63,5.63-8.6,0-14.23Q183.79,73,158,47.25c-6.24-6.22-8.94-6.13-15.31.25q-15.18,15.21-30.39,30.4-32.87,32.88-65.72,65.76c-4.74,4.75-5.1,8.36-1,12.47q27.3,27.48,54.81,54.75C101.78,212.31,103.9,213.05,106.2,214.4Z"/><path class="cls-2" d="M226.37,131.44c6.49-6.28,12.38-12.11,18.47-17.73a7.22,7.22,0,0,1,4.51-1.44c16.82-.1,33.64,0,50.47-.08,4.41,0,6.35,2.13,6.32,6.45-.06,8.5-.1,17,0,25.49,0,3.84-1.73,5.59-5.35,6.55-14.07,3.73-22.65,14.31-22.55,27.42s8.57,23.28,22.89,27.11c3.4.91,5.05,2.73,5,6.34-.1,8.49-.12,17,0,25.49.07,4.72-2.21,6.56-6.73,6.54-15.33-.06-30.65,0-46,0H114.93c5.26-5.3,9.82-9.3,13.65-13.91,4.2-5.05,9-6.57,15.56-6.51,38.31.32,76.62.15,114.94.14,7.63,0,10-2.24,10-9.65q0-35.73,0-71.46c0-7.37-2.45-9.74-10-9.77q-15.25,0-30.49-.08A12.55,12.55,0,0,1,226.37,131.44Z"/><path class="cls-2" d="M147,213c7.64-7.45,15.32-14.86,22.89-22.38,15.41-15.32,30.71-30.75,46.2-46a10.13,10.13,0,0,1,6.16-2.73c9.65-.29,19.31-.18,29-.12,6,0,8.13,2.25,8.13,8.24q0,28.07,0,56.14c0,5.66-2.37,8.14-7.88,8.15q-50.92,0-101.87,0c-.58,0-1.15-.07-1.73-.12Z"/><path class="cls-1" d="M150.3,52.64c2.1,1.24,4.11,1.94,5.49,3.3q22.46,22.2,44.71,44.6c3.91,3.94,3.52,7.29-1,11.85q-31.35,31.41-62.76,62.77c-8.16,8.16-16.31,16.36-24.51,24.48-4.6,4.56-7.91,4.51-12.54-.11q-21.51-21.47-43-43c-4.29-4.3-4.35-7.85,0-12.23q43.77-43.86,87.66-87.63C146,55.1,148.14,54.1,150.3,52.64Z"/><path class="cls-3" d="M393.22,139.28h18.92v25.95H393.22v36.28c0,8,4.29,10.14,10.73,10.14a36.56,36.56,0,0,0,7.8-1v24.58c-1.17.58-6,2.73-15.41,2.73-20.09,0-32.38-11.9-32.38-31.21V165.23H346.79V139.28h4.88c10.14,0,15-6.82,15-15.8V111h26.53Z"/><path class="cls-3" d="M433.21,239.16V142.21h29.65v96.95Z"/><path class="cls-3" d="M511.23,187.86c0,15.41,10.34,24,22.63,24,11.51,0,17.95-7.22,20.09-14.44l26.14,8c-4.29,17-20.28,33.75-46.23,33.75-28.87,0-52.08-21.26-52.08-51.3,0-30.24,22.63-51.5,51.11-51.5,26.72,0,42.33,16.38,46.62,33.74l-26.53,8c-2.15-7.41-8-14.43-19.51-14.43C521.18,163.67,511.23,172.25,511.23,187.86Z"/><path class="cls-3" d="M657.93,180.05l38.62,56.18H660.27L637.44,202.1l-9.56,10.33v23.8H598.23V95h29.65v76.86l29.46-32.58h38.43Z"/><path class="cls-3" d="M794.67,208.34C790,225.11,774.58,239.16,750,239.16c-26.73,0-50.52-19.12-50.52-51.69,0-31.22,23.21-51.11,48.37-51.11,30,0,48.57,18.53,48.57,49.74a61.49,61.49,0,0,1-.58,9.17H728.35c.58,10.92,10.53,18.72,22,18.72,10.73,0,16.77-5.07,19.51-12.67Zm-26.92-32.19c-.39-7.41-5.46-16.38-19.51-16.38-12.48,0-18.72,9.16-19.31,16.38Z"/><path class="cls-3" d="M851,139.28H870v25.95H851v36.28c0,8,4.3,10.14,10.73,10.14a36.76,36.76,0,0,0,7.81-1v24.58c-1.17.58-6.05,2.73-15.41,2.73-20.1,0-32.39-11.9-32.39-31.21V165.23H804.62V139.28h4.88c10.14,0,15-6.82,15-15.8V111H851Z"/><path class="cls-1" d="M447.84,92.27a17.36,17.36,0,1,1-17.17,17.36A17.44,17.44,0,0,1,447.84,92.27Z"/><path class="cls-3" d="M697.21,63.64l12.73-1.89c2.95-.42,3.9-1.9,3.9-3.69,0-3.68-2.85-6.73-8.74-6.73-6.1,0-9.47,3.89-9.89,8.42l-12.42-2.63c.84-8.11,8.31-17,22.21-17,16.41,0,22.52,9.26,22.52,19.68V85.22a57.21,57.21,0,0,0,.63,8.2H715.31a34.45,34.45,0,0,1-.53-6.2c-2.63,4.1-7.57,7.68-15.26,7.68-11,0-17.78-7.47-17.78-15.58C681.74,70.06,688.58,64.9,697.21,63.64Zm16.63,8.84V70.17L702.15,72c-3.57.52-6.42,2.52-6.42,6.52,0,3,2.21,6,6.74,6C708.36,84.48,713.84,81.64,713.84,72.48Z"/><path class="cls-3" d="M739,93.42V17.23h14V93.42Z"/><path class="cls-3" d="M774.72,107c.45,7,5,11.87,11.63,11.87,8.84,0,14-5.2,13.79-14.42v-20c-2.11,3.37-6.95,6.63-14.42,6.63-13.79,0-24.1-10.63-24.1-25.15,0-13.68,9.89-25.26,24.1-25.26,8.21,0,12.94,3.58,14.73,7v-6.1h13.47V104c0,14.21-7.68,27.15-27.15,27.15-14.21,0-24-9.59-25.15-24.18ZM800.35,66c0-8-5.48-13-12.21-13-6.95,0-12.42,5.05-12.42,13s5.16,13.15,12.42,13.15S800.35,74,800.35,66Z"/><path class="cls-3" d="M875.91,67.54c0,15.89-11.68,27.46-27.15,27.46s-27.15-11.57-27.15-27.46,11.68-27.47,27.15-27.47S875.91,51.54,875.91,67.54Zm-14,0c0-9.79-6.31-14.74-13.15-14.74s-13.16,5-13.16,14.74,6.32,14.73,13.16,14.73S861.91,77.32,861.91,67.54Z"/><path class="cls-2" d="M682.76,107h70v20.17H667.29Z"/></g></g></svg>