<svg xmlns="http://www.w3.org/2000/svg" width="506" height="488" fill="none" viewBox="0 0 506 488">
  <g filter="url(#a)">
    <path stroke="#000" stroke-opacity=".2" d="M4.5.5h497v479H4.5z" shape-rendering="crispEdges"/>
  </g>
  <path fill="#8B5CF6" d="m385.568 337.869 37.849-38.308 63.965 52.585-53.203 51.434-48.611-65.711Z"/>
  <path fill="#fff" d="m431.677 355.088-2.04 1.759-5.699-6.609 2.13-1.837c.641-.553 1.303-.894 1.988-1.023a3.43 3.43 0 0 1 2.025.229c.666.28 1.294.763 1.884 1.447.594.688.983 1.387 1.166 2.095a3.459 3.459 0 0 1-.086 2.067c-.241.669-.697 1.293-1.368 1.872Zm-1.852.358 1.188-1.024c.546-.471.908-.967 1.086-1.488.177-.52.186-1.051.027-1.593-.16-.541-.471-1.081-.935-1.619-.46-.534-.943-.918-1.45-1.153a2.546 2.546 0 0 0-1.549-.217c-.526.09-1.047.358-1.564.803l-1.278 1.102 4.475 5.189Zm6.434-4.31-2.087-8.397-.044-.052-3.408 2.939-.612-.71 4.234-3.651.645.749 2.111 8.398-.839.724Z"/>
  <path fill="#8B5CF6" d="m337.5 365.5 46.093-26.148 48.209 65.288-64.238 36.735L337.5 365.5Z"/>
  <path fill="#fff" d="m378.936 393.543-2.329 1.352-4.381-7.548 2.432-1.412c.732-.425 1.446-.637 2.143-.637a3.421 3.421 0 0 1 1.948.598c.603.399 1.131.989 1.585 1.77.456.787.709 1.545.759 2.275a3.46 3.46 0 0 1-.467 2.015c-.36.613-.923 1.142-1.69 1.587Zm-1.886.011 1.357-.787c.624-.363 1.071-.783 1.342-1.262.27-.479.377-1 .32-1.561-.056-.562-.263-1.15-.62-1.764-.353-.609-.757-1.076-1.212-1.401a2.545 2.545 0 0 0-1.482-.499c-.534-.009-1.096.158-1.685.5l-1.46.848 3.44 5.926Zm9.45-4.264a3.28 3.28 0 0 1-1.032.363c-.375.066-.768.04-1.179-.079-.412-.122-.829-.368-1.251-.738-.423-.372-.837-.907-1.242-1.605-.388-.668-.669-1.296-.843-1.885-.176-.591-.247-1.133-.214-1.625.031-.495.162-.932.392-1.311a2.73 2.73 0 0 1 .985-.942 2.806 2.806 0 0 1 1.276-.4c.428-.026.834.051 1.217.229.383.179.718.445 1.006.8l-.899.522a1.932 1.932 0 0 0-.976-.561c-.371-.084-.755-.01-1.153.221-.585.339-.898.861-.939 1.565-.039.702.207 1.514.738 2.434l.059-.034a2.542 2.542 0 0 1 .613-1.533c.183-.216.404-.398.662-.548a2.61 2.61 0 0 1 1.375-.364c.483.005.942.134 1.378.387.435.251.793.619 1.076 1.106.271.466.414.954.431 1.464.015.507-.1.984-.346 1.433-.245.444-.623.811-1.134 1.101Zm-.471-.81c.31-.18.542-.419.698-.716.158-.299.233-.62.225-.963a2.043 2.043 0 0 0-.288-.996 2.013 2.013 0 0 0-.704-.729 1.855 1.855 0 0 0-.929-.284 1.75 1.75 0 0 0-.958.25 1.783 1.783 0 0 0-.571.519 1.931 1.931 0 0 0-.312.684 2.079 2.079 0 0 0-.035.755c.032.254.114.493.245.72.174.299.407.539.698.718.294.178.61.275.948.292.341.016.669-.068.983-.25Z"/>
  <path fill="#8B5CF6" d="m282.5 385 51.921-18.288 29.852 75.469L292.5 462l-10-77Z"/>
  <path fill="#fff" d="m314.764 418.791-2.599.706-2.287-8.422 2.714-.737c.817-.222 1.562-.243 2.235-.064a3.435 3.435 0 0 1 1.728 1.08c.48.541.838 1.248 1.075 2.12.238.877.287 1.675.146 2.393a3.454 3.454 0 0 1-.97 1.826c-.506.5-1.187.866-2.042 1.098Zm-1.825-.476 1.514-.411c.696-.189 1.237-.48 1.621-.873.385-.393.623-.868.713-1.425.09-.558.042-1.179-.144-1.864-.185-.68-.455-1.235-.81-1.666a2.552 2.552 0 0 0-1.304-.865c-.513-.146-1.099-.129-1.757.049l-1.629.443 1.796 6.612Zm10.065-1.638a2.997 2.997 0 0 1-1.382.066 2.511 2.511 0 0 1-1.144-.537 2.23 2.23 0 0 1-.693-1.039l.987-.268c.142.37.4.639.775.805.377.162.781.185 1.211.068.345-.094.631-.258.855-.493a1.77 1.77 0 0 0 .457-.839 2.053 2.053 0 0 0-.028-1.03c-.1-.367-.27-.673-.51-.917a1.845 1.845 0 0 0-.844-.508 1.94 1.94 0 0 0-1.028.005 2.752 2.752 0 0 0-.761.335c-.25.153-.445.317-.587.491l-.985.144-.616-4.284 4.376-1.189.245.905-3.52.956.379 2.565.049-.014a2.569 2.569 0 0 1 1.334-.875 2.684 2.684 0 0 1 2.705.741c.349.361.597.815.745 1.361.146.537.156 1.049.029 1.537a2.732 2.732 0 0 1-.716 1.263 2.916 2.916 0 0 1-1.333.751Z"/>
  <path fill="#8B5CF6" d="M222.5 384.5H279l10 78h-77.5l11-78Z"/>
  <path fill="#fff" d="M245.75 427h-2.693v-8.727h2.812c.847 0 1.571.174 2.174.524a3.428 3.428 0 0 1 1.385 1.496c.321.647.481 1.423.481 2.326 0 .909-.162 1.692-.486 2.348a3.459 3.459 0 0 1-1.414 1.509c-.62.349-1.373.524-2.259.524Zm-1.636-.938h1.568c.721 0 1.319-.139 1.794-.417a2.58 2.58 0 0 0 1.061-1.189c.233-.514.349-1.126.349-1.837 0-.704-.115-1.311-.345-1.819a2.54 2.54 0 0 0-1.031-1.176c-.457-.276-1.027-.414-1.709-.414h-1.687v6.852Zm7.21-.852v-.869l3.835-6.068h.631v1.346h-.426l-2.898 4.586v.068h5.165v.937h-6.307Zm4.108 1.79v-8.727h1.006V427h-1.006Z"/>
  <path fill="#8B5CF6" d="m165 370 54 13-10.488 78.924L139 442l26-72Z"/>
  <path fill="#fff" d="m178.354 417.547-2.616-.639 2.07-8.478 2.732.667c.822.201 1.485.542 1.987 1.025.503.479.833 1.073.991 1.781.158.705.13 1.497-.084 2.375-.216.883-.559 1.605-1.029 2.165a3.461 3.461 0 0 1-1.732 1.13c-.685.193-1.457.184-2.319-.026Zm-1.367-1.299 1.524.372c.701.171 1.315.178 1.841.02a2.57 2.57 0 0 0 1.313-.904c.348-.444.607-1.011.775-1.701.167-.684.199-1.301.096-1.85a2.55 2.55 0 0 0-.722-1.387c-.379-.376-.9-.645-1.563-.806l-1.639-.401-1.625 6.657Zm9.817 3.485c-.546-.134-1.01-.347-1.392-.639a2.565 2.565 0 0 1-.823-1.03 2.16 2.16 0 0 1-.12-1.27l1.043.254c-.044.279-.008.538.109.777.118.236.297.441.539.614.241.173.525.299.85.379.365.089.703.104 1.015.046.313-.058.577-.181.792-.368.215-.188.36-.43.432-.728a1.527 1.527 0 0 0-.03-.881 1.582 1.582 0 0 0-.542-.729c-.265-.208-.613-.364-1.043-.469l-.679-.166.222-.911.679.166c.337.082.647.094.93.034.287-.059.529-.181.726-.367.2-.185.337-.426.409-.724.07-.287.068-.553-.007-.796a1.335 1.335 0 0 0-.417-.628c-.2-.175-.456-.3-.768-.376a2.196 2.196 0 0 0-.867-.041c-.283.042-.53.144-.742.306a1.234 1.234 0 0 0-.441.656l-.993-.243c.125-.44.354-.797.686-1.069a2.593 2.593 0 0 1 1.178-.546 3.28 3.28 0 0 1 1.414.046c.524.128.948.345 1.272.649.324.301.544.649.662 1.043.117.394.127.791.029 1.192-.116.477-.341.853-.675 1.129-.33.276-.725.427-1.185.452l-.016.066c.514.219.876.549 1.088.989.212.438.252.926.12 1.464a2.212 2.212 0 0 1-.679 1.15 2.639 2.639 0 0 1-1.229.613c-.482.104-.997.09-1.547-.044Z"/>
  <path fill="#8B5CF6" d="m117.5 343 44.5 25.5-26.295 72.883-64.189-36.821L117.5 343Z"/>
  <path fill="#fff" d="m113.741 389.292-2.345-1.326 4.295-7.597 2.448 1.384c.737.417 1.282.925 1.634 1.526.354.598.511 1.259.47 1.984-.039.721-.281 1.476-.726 2.262-.447.791-.973 1.393-1.578 1.805a3.468 3.468 0 0 1-1.974.617c-.711-.001-1.453-.219-2.224-.655Zm-.963-1.622 1.365.772c.628.355 1.217.528 1.767.519a2.568 2.568 0 0 0 1.509-.512c.456-.333.858-.809 1.208-1.427.347-.614.545-1.198.595-1.754a2.55 2.55 0 0 0-.319-1.532c-.263-.465-.691-.865-1.284-1.2l-1.469-.831-3.372 5.965Zm5.993 4.465.378-.667 4.059-1.328a19.64 19.64 0 0 0 1.201-.427c.326-.132.594-.278.805-.436.214-.16.387-.356.518-.588a1.41 1.41 0 0 0-.064-1.549 1.926 1.926 0 0 0-.652-.579 1.767 1.767 0 0 0-.867-.25 1.44 1.44 0 0 0-.784.217 1.81 1.81 0 0 0-.602.658l-.875-.494c.251-.446.575-.778.97-.999a2.46 2.46 0 0 1 1.283-.312c.463.013.915.145 1.358.395.445.252.786.569 1.024.951.237.382.364.788.379 1.218.015.429-.088.839-.309 1.23a2.62 2.62 0 0 1-.616.734c-.248.209-.588.406-1.02.593-.428.186-.992.389-1.691.61l-2.739.861-.033.059 3.531 1.997-.461.816-4.793-2.71Z"/>
  <path fill="#8B5CF6" d="M80.204 302.398 116 341l-46.245 62.387-52.816-51.831 63.265-49.158Z"/>
  <path fill="#fff" d="m62.684 352.199-1.959-1.848 5.99-6.348 2.046 1.931c.615.581 1.023 1.205 1.22 1.873a3.43 3.43 0 0 1-.019 2.038c-.21.691-.626 1.366-1.246 2.023-.624.661-1.28 1.119-1.965 1.374a3.46 3.46 0 0 1-2.065.126c-.69-.171-1.357-.561-2.002-1.169Zm-.546-1.805 1.14 1.076c.525.496 1.055.805 1.591.928a2.575 2.575 0 0 0 1.588-.136c.523-.215 1.027-.58 1.515-1.096.483-.513.816-1.033.998-1.561a2.545 2.545 0 0 0 .057-1.563c-.144-.514-.463-1.005-.96-1.473l-1.226-1.158-4.703 4.983Zm12.97 1.53-5.99 6.347-.768-.726 5.229-5.541-.037-.035-2.52-.433.736-.782 2.581.444.769.726Z"/>
  <path fill="#EF4444" d="M301.773 287.969 323.5 274.5l56.232 59.766L338.5 358l-36.727-70.031Z"/>
  <path fill="#fff" d="m340.314 316.49-.877.589a2.202 2.202 0 0 0-1.509-.649c-.27-.01-.539.027-.805.11a2.886 2.886 0 0 0-.759.366 2.662 2.662 0 0 0-.969 1.134c-.205.459-.267.975-.187 1.548.083.571.335 1.17.756 1.797.422.627.882 1.087 1.379 1.379.5.29 1.001.427 1.504.411a2.66 2.66 0 0 0 1.415-.468c.241-.162.45-.35.627-.565.177-.215.313-.449.407-.7a2.253 2.253 0 0 0-.033-1.647l.877-.589c.183.414.285.826.307 1.236.022.41-.028.804-.149 1.184-.123.377-.31.727-.562 1.05a3.925 3.925 0 0 1-.922.851c-.618.415-1.269.634-1.953.655-.684.022-1.35-.153-2-.524-.65-.371-1.232-.939-1.745-1.703-.514-.763-.82-1.516-.918-2.258-.098-.742-.008-1.426.27-2.051.278-.625.726-1.145 1.344-1.56a3.936 3.936 0 0 1 1.136-.533c.395-.111.79-.151 1.188-.12.395.028.779.13 1.15.305.369.173.712.423 1.028.752Zm6.967 2.69a3.003 3.003 0 0 1-1.287.506 2.514 2.514 0 0 1-1.256-.142 2.229 2.229 0 0 1-.99-.762l.849-.571a1.4 1.4 0 0 0 .993.514c.409.033.798-.074 1.168-.323.298-.2.515-.447.652-.741.14-.296.195-.61.163-.942a2.04 2.04 0 0 0-.357-.966 2.04 2.04 0 0 0-.776-.705 1.855 1.855 0 0 0-.963-.211c-.337.018-.661.13-.972.335a2.754 2.754 0 0 0-.613.561 2.288 2.288 0 0 0-.399.653l-.887.453-1.957-3.86 3.763-2.53.523.779-3.028 2.034 1.182 2.308.042-.029c.069-.218.19-.441.362-.669.171-.228.378-.424.621-.587.444-.298.91-.458 1.399-.478a2.68 2.68 0 0 1 1.401.311c.446.231.826.581 1.142 1.05.31.462.484.944.521 1.447a2.74 2.74 0 0 1-.274 1.426c-.221.45-.562.83-1.022 1.139Z"/>
  <path fill="#EF4444" d="m270.5 294.5 25-4.5 37.262 70.693-47.976 15.668L270.5 294.5Z"/>
  <path fill="#fff" d="m292.366 329.122-1.02.276a2.18 2.18 0 0 0-.526-.687 2.182 2.182 0 0 0-.694-.413 2.397 2.397 0 0 0-.797-.155 2.897 2.897 0 0 0-.837.103c-.51.138-.938.392-1.282.762-.341.369-.566.838-.675 1.406-.105.567-.059 1.215.138 1.944.198.73.485 1.313.862 1.749.38.436.811.727 1.292.874a2.67 2.67 0 0 0 1.491.011c.279-.076.538-.187.775-.333.237-.147.44-.324.611-.532a2.223 2.223 0 0 0 .497-1.57l1.021-.276c.039.452.004.875-.107 1.27a3.27 3.27 0 0 1-1.392 1.886c-.34.225-.722.394-1.147.509-.719.195-1.405.192-2.059-.007-.655-.2-1.23-.58-1.726-1.14-.496-.561-.864-1.285-1.105-2.173-.24-.889-.288-1.7-.142-2.434.146-.734.451-1.352.915-1.855.464-.502 1.056-.851 1.774-1.045a3.938 3.938 0 0 1 1.247-.139c.41.022.797.111 1.163.268.366.154.696.374.991.659.294.282.538.63.732 1.042Zm2.403 3.712-.227-.84 2.117-6.859.609-.165.351 1.3-.411.111-1.599 5.183.018.066 4.985-1.349.245.905-6.088 1.648Zm4.433.654-.536-1.983-.106-.391-1.638-6.05.971-.263 2.28 8.424-.971.263Z"/>
  <path fill="#EF4444" d="M234 295h29.5l14 81.502h-50.469L234 295Z"/>
  <path fill="#fff" d="M251.08 336h-1.057a2.208 2.208 0 0 0-.891-1.381 2.405 2.405 0 0 0-.729-.358 2.926 2.926 0 0 0-.835-.119c-.528 0-1.007.134-1.436.401-.426.267-.766.66-1.018 1.18-.25.52-.375 1.158-.375 1.913 0 .756.125 1.394.375 1.914.252.52.592.913 1.018 1.18.429.267.908.401 1.436.401.29 0 .568-.04.835-.12a2.44 2.44 0 0 0 .729-.353c.222-.159.409-.354.563-.584.156-.233.265-.5.328-.801h1.057c-.08.446-.225.845-.435 1.197a3.278 3.278 0 0 1-1.837 1.458 3.942 3.942 0 0 1-1.24.191c-.744 0-1.406-.181-1.986-.545-.579-.364-1.035-.881-1.368-1.551-.332-.671-.498-1.466-.498-2.387 0-.92.166-1.716.498-2.386.333-.67.789-1.187 1.368-1.551.58-.364 1.242-.546 1.986-.546.441 0 .854.064 1.24.192.389.128.74.316 1.053.563.312.244.574.542.784.895.21.349.355.748.435 1.197Zm4.503 6.119c-.563 0-1.064-.096-1.505-.289a2.59 2.59 0 0 1-1.044-.806 2.169 2.169 0 0 1-.417-1.206h1.074c.022.281.119.524.289.729.171.202.394.358.67.469.275.11.58.166.916.166.375 0 .707-.066.997-.196.29-.131.517-.313.682-.546a1.37 1.37 0 0 0 .247-.809c0-.321-.08-.604-.239-.848a1.58 1.58 0 0 0-.699-.58c-.306-.139-.681-.209-1.125-.209h-.699v-.937h.699c.347 0 .651-.063.912-.188a1.412 1.412 0 0 0 .844-1.329c0-.296-.065-.553-.196-.772a1.344 1.344 0 0 0-.554-.511 1.795 1.795 0 0 0-.835-.183c-.301 0-.585.055-.852.166a1.583 1.583 0 0 0-.648.473 1.23 1.23 0 0 0-.273.742h-1.023c.017-.458.155-.858.414-1.202a2.59 2.59 0 0 1 1.014-.81c.42-.193.882-.29 1.385-.29.54 0 1.003.11 1.389.329.386.215.683.501.891.856.207.355.311.739.311 1.151 0 .491-.13.91-.388 1.257a1.973 1.973 0 0 1-1.044.72v.068c.551.091.981.325 1.291.703.31.375.465.84.465 1.394 0 .474-.13.9-.388 1.278a2.629 2.629 0 0 1-1.048.886c-.444.216-.948.324-1.513.324Z"/>
  <path fill="#EF4444" d="m203.5 285.5 26 8.5-10.5 81.5-51-12.5 35.5-77.5Z"/>
  <path fill="#fff" d="m205.864 328.723-1.02-.276a2.195 2.195 0 0 0-.5-1.565 2.395 2.395 0 0 0-.61-.535 2.882 2.882 0 0 0-.775-.333 2.66 2.66 0 0 0-1.491.012c-.481.147-.912.438-1.291.875-.377.436-.664 1.019-.861 1.749-.197.73-.242 1.378-.137 1.945.109.568.334 1.036.676 1.405.345.37.772.623 1.282.761.28.076.559.11.838.103a2.46 2.46 0 0 0 .795-.152 2.243 2.243 0 0 0 1.221-1.105l1.02.275c-.193.41-.437.758-.731 1.043a3.265 3.265 0 0 1-2.153.929 3.944 3.944 0 0 1-1.248-.139c-.718-.194-1.31-.542-1.775-1.044-.464-.502-.77-1.12-.916-1.854-.146-.734-.099-1.545.141-2.434.24-.888.607-1.613 1.103-2.174.496-.56 1.071-.94 1.725-1.141.654-.2 1.341-.203 2.059-.009.425.115.808.285 1.147.509.343.225.633.497.87.817.238.317.413.674.524 1.068.112.393.148.816.107 1.27Zm-.063 6.198.2-.741 3.603-2.294c.423-.268.775-.505 1.057-.712.283-.209.507-.416.672-.622.167-.208.286-.44.356-.698.08-.296.078-.572-.006-.827a1.445 1.445 0 0 0-.441-.658 1.924 1.924 0 0 0-.775-.399 1.782 1.782 0 0 0-.902-.027 1.429 1.429 0 0 0-.705.406 1.783 1.783 0 0 0-.42.787l-.971-.262c.133-.494.364-.897.692-1.208a2.462 2.462 0 0 1 1.166-.622 2.907 2.907 0 0 1 1.413.047c.494.133.903.355 1.228.667.325.311.548.673.669 1.085.121.412.123.835.006 1.268a2.61 2.61 0 0 1-.414.864c-.189.264-.469.54-.841.828-.369.286-.864.623-1.487 1.011l-2.439 1.513-.018.066 3.917 1.057-.244.906-5.316-1.435Z"/>
  <path fill="#EF4444" d="m174 270.5 24.5 13-35.5 77-39-22.497 50-67.503Z"/>
  <path fill="#fff" d="m167.618 312.367-.896-.559c.108-.291.156-.576.145-.854a2.184 2.184 0 0 0-.17-.789 2.414 2.414 0 0 0-.429-.69c-.185-.208-.4-.39-.646-.543a2.654 2.654 0 0 0-1.43-.42c-.503.001-.999.155-1.489.462-.487.309-.931.784-1.331 1.425-.4.642-.631 1.249-.694 1.822-.061.575.019 1.089.239 1.541.223.453.558.82 1.007 1.1.246.153.503.267.772.341.268.073.537.102.805.085a2.232 2.232 0 0 0 1.489-.704l.896.56a3.521 3.521 0 0 1-1.002.786 3.301 3.301 0 0 1-1.141.348 3.447 3.447 0 0 1-1.189-.084 3.917 3.917 0 0 1-1.153-.493c-.632-.394-1.097-.899-1.397-1.514-.299-.615-.412-1.295-.339-2.04.072-.745.352-1.508.84-2.289.487-.781 1.049-1.368 1.685-1.761.637-.393 1.298-.59 1.982-.592.684-.002 1.342.194 1.974.588.373.233.69.506.95.819.263.315.461.659.596 1.035.135.372.199.764.191 1.174a3.466 3.466 0 0 1-.265 1.246Zm5.366.132-4.619 7.405-.897-.559 4.033-6.465-.044-.027-2.556.073.568-.911 2.618-.075.897.559Z"/>
  <path fill="#3B82F6" d="m297.5 200 24.296-18.477 57 47.5-47.283 33.689L297.5 200Z"/>
  <path fill="#fff" d="m329.371 228.729-5.49-6.783 2.371-1.92c.473-.383.929-.616 1.368-.701a2.067 2.067 0 0 1 1.214.097c.37.15.689.391.957.722.236.291.379.574.429.848.052.272.039.531-.04.778-.076.244-.19.471-.341.682l.053.066c.218-.155.486-.251.803-.288.317-.037.646.01.988.143.341.133.657.379.947.736.275.34.445.709.51 1.105.066.397-.004.81-.209 1.239-.205.429-.574.859-1.108 1.292l-2.452 1.984Zm.232-1.394 1.63-1.319c.536-.434.833-.846.89-1.236a1.284 1.284 0 0 0-.275-1.038 1.559 1.559 0 0 0-.69-.494 1.635 1.635 0 0 0-.881-.065 2.016 2.016 0 0 0-.914.443l-1.669 1.351 1.909 2.358Zm-2.488-3.073 1.524-1.234c.247-.2.431-.429.551-.687.122-.26.17-.525.144-.797a1.397 1.397 0 0 0-.325-.767 1.33 1.33 0 0 0-.925-.507c-.378-.041-.792.12-1.242.485l-1.55 1.254 1.823 2.253Zm10.398-1.97c-.388.314-.801.52-1.237.618a2.522 2.522 0 0 1-1.264-.03 2.233 2.233 0 0 1-1.053-.672l.795-.643c.279.282.624.423 1.034.424a1.79 1.79 0 0 0 1.136-.426 1.81 1.81 0 0 0 .583-.796 1.76 1.76 0 0 0 .079-.952 2.05 2.05 0 0 0-.441-.931 2.045 2.045 0 0 0-.836-.634 1.856 1.856 0 0 0-1.916.296c-.209.165-.396.37-.561.613-.167.241-.28.47-.339.686l-.844.529-2.291-3.671 3.524-2.853.59.729-2.836 2.295 1.381 2.193.04-.032c.05-.223.15-.456.301-.698.151-.243.34-.456.567-.641a2.68 2.68 0 0 1 1.351-.6c.486-.068.96-.006 1.423.186.464.191.875.506 1.23.945.351.433.566.898.647 1.395.082.494.033.975-.146 1.445-.18.468-.486.876-.917 1.225Z"/>
  <path fill="#3B82F6" d="M264.881 211.212 289.5 203.5 328 263l-48.626 22.308-14.493-74.096Z"/>
  <path fill="#fff" d="m285.367 245.697-2.438-8.38 2.93-.852c.583-.17 1.094-.209 1.532-.118.437.089.798.276 1.082.56.283.281.484.627.603 1.036.105.36.127.676.067.948a1.554 1.554 0 0 1-.337.702 2.357 2.357 0 0 1-.579.496l.024.082c.261-.058.545-.043.852.045.307.089.592.26.855.515.264.255.46.603.588 1.045.122.42.137.825.044 1.217-.094.391-.318.744-.673 1.06-.354.317-.862.571-1.522.763l-3.028.881Zm.753-1.195 2.013-.586c.663-.193 1.096-.458 1.3-.796.205-.34.255-.695.148-1.063a1.557 1.557 0 0 0-.446-.723 1.639 1.639 0 0 0-.787-.401c-.31-.07-.648-.051-1.013.055l-2.063.6.848 2.914Zm-1.105-3.798 1.882-.547c.306-.089.564-.229.775-.421.213-.192.36-.418.441-.679a1.392 1.392 0 0 0-.003-.833 1.328 1.328 0 0 0-.657-.825c-.332-.185-.776-.196-1.332-.034l-1.915.557.809 2.782Zm7.002 1.194-.242-.835 1.987-6.898.605-.176.377 1.293-.41.119-1.501 5.212.019.066 4.959-1.443.262.9-6.056 1.762Zm4.445.571-.574-1.972-.113-.389-1.751-6.019.965-.281 2.438 8.38-.965.281Z"/>
  <path fill="#3B82F6" d="M238.5 211.207h20.389L271 284h-44l11.5-72.793Z"/>
  <path fill="#fff" d="M242.057 249v-8.727h3.051c.608 0 1.109.105 1.504.315.395.207.689.487.882.84.194.349.29.737.29 1.163 0 .375-.067.685-.2.929a1.56 1.56 0 0 1-.52.579 2.365 2.365 0 0 1-.695.316v.085c.267.017.536.111.806.281.27.171.495.415.677.733.182.318.273.708.273 1.168 0 .437-.099.831-.298 1.18-.199.35-.513.627-.942.831-.429.205-.987.307-1.675.307h-3.153Zm1.057-.938h2.096c.691 0 1.181-.133 1.47-.4.293-.27.439-.597.439-.98a1.55 1.55 0 0 0-.226-.818 1.627 1.627 0 0 0-.643-.605c-.278-.154-.608-.231-.989-.231h-2.147v3.034Zm0-3.954h1.96c.318 0 .605-.063.861-.188.258-.125.463-.301.613-.528.154-.227.23-.494.23-.801 0-.384-.133-.709-.4-.976-.267-.27-.69-.405-1.27-.405h-1.994v2.898Zm9.543 5.011c-.563 0-1.064-.096-1.504-.289a2.576 2.576 0 0 1-1.044-.806 2.162 2.162 0 0 1-.418-1.206h1.074c.023.281.119.524.29.729.17.202.393.358.669.469.275.11.581.166.916.166.375 0 .707-.066.997-.196.29-.131.517-.313.682-.546.165-.233.247-.503.247-.809 0-.321-.079-.604-.239-.848a1.582 1.582 0 0 0-.698-.58c-.307-.139-.682-.209-1.125-.209h-.699v-.937h.699c.346 0 .65-.063.911-.188a1.412 1.412 0 0 0 .844-1.329c0-.296-.065-.553-.196-.772a1.337 1.337 0 0 0-.554-.511 1.795 1.795 0 0 0-.835-.183c-.301 0-.585.055-.852.166-.264.108-.48.266-.648.473a1.23 1.23 0 0 0-.273.742h-1.022c.017-.458.154-.858.413-1.202a2.59 2.59 0 0 1 1.014-.81c.421-.193.882-.29 1.385-.29.54 0 1.003.11 1.389.329.387.215.683.501.891.856.207.355.311.739.311 1.151 0 .491-.129.91-.388 1.257a1.973 1.973 0 0 1-1.044.72v.068c.551.091.982.325 1.291.703.31.375.465.84.465 1.394 0 .474-.129.9-.388 1.278a2.629 2.629 0 0 1-1.048.886c-.443.216-.948.324-1.513.324Z"/>
  <path fill="#3B82F6" d="m207 203 25 7-9.889 72.799L172 256.5l35-53.5Z"/>
  <path fill="#fff" d="m199.311 238.157 3.988-7.763 2.714 1.394c.541.278.939.601 1.194.968.257.365.39.748.401 1.15.012.399-.079.788-.274 1.167-.171.334-.372.579-.602.735a1.56 1.56 0 0 1-.728.278 2.356 2.356 0 0 1-.762-.037l-.039.076c.23.137.426.343.588.618.162.275.252.596.268.962.016.366-.081.753-.291 1.163-.2.389-.468.693-.805.913-.336.22-.742.323-1.217.309-.475-.014-1.019-.178-1.63-.492l-2.805-1.441Zm1.368-.351 1.865.958c.614.315 1.111.42 1.491.315.384-.106.663-.33.838-.671.135-.263.193-.54.173-.831a1.638 1.638 0 0 0-.295-.832 2.02 2.02 0 0 0-.775-.657l-1.91-.981-1.387 2.699Zm1.808-3.518 1.743.896c.283.145.567.221.852.227.287.007.549-.057.787-.19.24-.132.431-.334.571-.607.175-.341.205-.692.089-1.051-.114-.362-.429-.676-.944-.941l-1.774-.911-1.324 2.577Zm3.63 7.365.35-.682 4.003-1.488c.47-.174.864-.333 1.184-.475a3.56 3.56 0 0 0 .786-.468c.208-.168.373-.371.495-.608.14-.273.196-.543.167-.81a1.443 1.443 0 0 0-.293-.735 1.923 1.923 0 0 0-.675-.553 1.77 1.77 0 0 0-.876-.215c-.282.008-.54.091-.774.248a1.801 1.801 0 0 0-.576.682l-.894-.46c.233-.454.543-.8.93-1.036a2.45 2.45 0 0 1 1.269-.363c.463-.005.92.109 1.372.341.455.234.809.537 1.061.909.253.373.395.773.427 1.202.033.428-.054.842-.259 1.241a2.621 2.621 0 0 1-.586.758c-.24.219-.572.43-.996.634-.42.202-.975.428-1.665.677l-2.702.969-.031.061 3.608 1.854-.428.833-4.897-2.516Z"/>
  <path fill="#3B82F6" d="m175.5 182 25.5 17-34.5 54.879-43.5-36.418L175.5 182Z"/>
  <path fill="#fff" d="m159.575 214.654 5.714-6.597 2.306 1.998c.46.398.77.806.931 1.223.163.415.202.819.117 1.212a2.372 2.372 0 0 1-.542 1.069c-.246.284-.499.474-.76.571a1.558 1.558 0 0 1-.772.098 2.364 2.364 0 0 1-.732-.216l-.056.064c.191.188.332.434.425.74.092.306.103.638.032.998-.071.359-.257.713-.558 1.061-.286.33-.619.563-.998.697s-.798.138-1.256.011c-.458-.126-.947-.414-1.467-.864l-2.384-2.065Zm1.413-.016 1.585 1.372c.522.452.979.672 1.373.66.398-.013.723-.164.974-.454.193-.223.315-.478.365-.766.051-.29.021-.583-.091-.879a2.013 2.013 0 0 0-.596-.821l-1.624-1.406-1.986 2.294Zm2.589-2.99 1.482 1.284c.24.208.498.349.773.421.277.075.547.076.81.003a1.4 1.4 0 0 0 .698-.455c.251-.29.363-.623.336-1-.025-.379-.256-.758-.695-1.137l-1.507-1.306-1.897 2.19Zm9.815 3.427-5.714 6.597-.799-.692 4.989-5.759-.039-.034-2.537-.325.703-.812 2.598.333.799.692Z"/>
  <path fill="#EAB308" d="m281.5 107 11.368-21.102 42.102 64.225L303.5 183l-22-76Zm-28.248 11.5 20.748-9 25.5 77.5-46.248 16.504V118.5Z"/>
  <path fill="#fff" d="m264.121 159.968-1.096.159 1.919-9.097 1.08-.156 4.423 8.177-1.096.159-3.635-6.897-.067.01-1.528 7.645Zm-.084-3.433 4.42-.64.134.928-4.419.64-.135-.928Zm10.539 2.038c-.556.081-1.066.057-1.53-.071a2.572 2.572 0 0 1-1.149-.647 2.167 2.167 0 0 1-.586-1.134l1.063-.154c.063.275.193.502.391.68.198.175.441.298.729.368.289.07.599.081.931.033.371-.054.691-.166.959-.337s.467-.384.596-.638c.13-.254.173-.533.129-.836a1.525 1.525 0 0 0-.358-.806 1.587 1.587 0 0 0-.775-.473c-.323-.094-.705-.109-1.143-.045l-.692.1-.134-.928.691-.1a2.1 2.1 0 0 0 .876-.316c.243-.162.422-.366.536-.612.116-.246.152-.521.108-.825a1.476 1.476 0 0 0-.304-.735 1.343 1.343 0 0 0-.622-.427 1.783 1.783 0 0 0-.853-.061 2.191 2.191 0 0 0-.819.286 1.593 1.593 0 0 0-.574.561 1.232 1.232 0 0 0-.163.773l-1.012.147c-.049-.455.03-.871.236-1.249.207-.38.502-.695.888-.946a3.264 3.264 0 0 1 1.329-.486c.534-.077 1.008-.035 1.422.126.413.158.748.398 1.004.72.256.321.414.686.473 1.094.071.486.003.919-.203 1.299a1.97 1.97 0 0 1-.93.863l.009.067c.559.011 1.019.181 1.379.511.36.327.58.764.66 1.312.068.47.001.91-.201 1.321a2.627 2.627 0 0 1-.91 1.028c-.408.277-.891.456-1.451.537Zm30.039-11.632-.936.593-1.961-9.088.921-.583 7.377 5.659-.936.592-6.134-4.811-.058.036 1.727 7.602Zm-1.478-3.099 3.773-2.389.502.792-3.773 2.389-.502-.792Zm6.767-2.368-.465-.735-.006-7.178.533-.338.72 1.138-.36.228.005 5.424.036.058 4.364-2.764.501.793-5.328 3.374Zm4.428-.686-1.099-1.735-.216-.342-3.354-5.296.85-.538 4.669 7.373-.85.538Z"/>
  <path fill="#EAB308" d="m228.5 109.5 18.088 8v84.998L202.5 184.5l26-75Zm-18.229-21.037 12.729 19-23.729 74.241-38.5-29 49.5-64.241Z"/>
  <path fill="#fff" d="m188.931 134.712-.968-.54 7.048-6.063.952.531-1.449 9.184-.968-.54 1.299-7.687-.06-.033-5.854 5.148Zm2.017-2.779 3.901 2.174-.457.819-3.901-2.174.457-.819Zm11.19.148-4.249 7.624-.923-.515 3.709-6.655-.044-.025-2.55.198.523-.938 2.611-.203.923.514Zm21.031 18.857-1.067-.298 5.434-7.544 1.05.294.74 9.267-1.067-.298-.536-7.777-.066-.018-4.488 6.374Zm1.311-3.173 4.302 1.201-.253.903-4.301-1.201.252-.903Zm6.008 5.217.206-.739 3.622-2.263c.425-.264.78-.499 1.064-.703a3.54 3.54 0 0 0 .676-.616c.17-.206.291-.438.363-.695a1.419 1.419 0 0 0 0-.827 1.44 1.44 0 0 0-.434-.662 1.946 1.946 0 0 0-.772-.405 1.777 1.777 0 0 0-.902-.035 1.438 1.438 0 0 0-.708.399 1.786 1.786 0 0 0-.427.784l-.969-.271c.138-.492.372-.893.703-1.202a2.465 2.465 0 0 1 1.171-.611 2.908 2.908 0 0 1 1.412.058c.493.138.9.364 1.223.678.322.314.542.678.659 1.091a2.3 2.3 0 0 1-.004 1.269 2.651 2.651 0 0 1-.422.86c-.191.262-.474.535-.848.82-.371.283-.87.616-1.496.998l-2.452 1.493-.018.065 3.908 1.091-.253.903-5.302-1.48ZM218.057 80v-8.727h5.267v.937h-4.21v2.95h3.937v.937h-3.937v2.966h4.278V80h-5.335Zm11.944-6.546a1.336 1.336 0 0 0-.622-1.005c-.363-.239-.809-.358-1.338-.358-.386 0-.724.062-1.014.187a1.62 1.62 0 0 0-.673.516 1.237 1.237 0 0 0-.239.746c0 .233.055.433.166.6.114.165.259.303.435.414.176.108.361.197.554.268.193.069.371.124.533.167l.886.238c.227.06.48.142.758.247.282.105.55.249.806.43.258.18.471.41.639.691.168.281.251.627.251 1.036 0 .471-.123.897-.37 1.278-.245.38-.603.683-1.074.908-.469.224-1.038.336-1.709.336-.625 0-1.166-.1-1.624-.302a2.586 2.586 0 0 1-1.073-.844 2.402 2.402 0 0 1-.439-1.257h1.091c.028.33.139.602.332.818.196.213.443.372.741.478.302.102.625.153.972.153.403 0 .766-.066 1.087-.196.321-.134.575-.318.762-.554a1.31 1.31 0 0 0 .282-.835c0-.29-.081-.526-.243-.708a1.784 1.784 0 0 0-.639-.443 6.744 6.744 0 0 0-.857-.298l-1.074-.307c-.682-.196-1.221-.476-1.619-.84-.398-.363-.597-.839-.597-1.427 0-.489.132-.915.397-1.278a2.634 2.634 0 0 1 1.073-.853 3.628 3.628 0 0 1 1.513-.307c.563 0 1.063.101 1.5.303a2.6 2.6 0 0 1 1.04.818c.259.347.395.74.409 1.18h-1.023Zm9.903.546h-1.057a2.21 2.21 0 0 0-.891-1.38 2.375 2.375 0 0 0-.728-.359 2.912 2.912 0 0 0-.836-.119c-.528 0-1.007.134-1.436.4-.426.268-.765.661-1.018 1.181-.25.52-.375 1.158-.375 1.913 0 .756.125 1.394.375 1.914.253.52.592.913 1.018 1.18.429.267.908.4 1.436.4.29 0 .569-.04.836-.119.267-.08.51-.197.728-.353a2.25 2.25 0 0 0 .563-.584c.156-.233.265-.5.328-.801h1.057c-.08.446-.225.845-.435 1.197a3.26 3.26 0 0 1-1.837 1.458 3.92 3.92 0 0 1-1.24.191c-.744 0-1.406-.181-1.985-.545-.58-.364-1.036-.88-1.368-1.551-.333-.67-.499-1.466-.499-2.387 0-.92.166-1.715.499-2.386.332-.67.788-1.188 1.368-1.551.579-.364 1.241-.546 1.985-.546.441 0 .854.064 1.24.192.39.128.741.316 1.053.563.313.244.574.542.784.895.21.349.355.748.435 1.197Zm1.708 6v-8.727h5.267v.937h-4.211v2.95h3.938v.937h-3.938v2.966h4.279V80h-5.335Zm14.092-8.727V80h-1.023l-4.756-6.852h-.085V80h-1.057v-8.727h1.023l4.773 6.869h.085v-6.87h1.04ZM258.176 80h-1.107l3.204-8.727h1.091L264.569 80h-1.108l-2.608-7.347h-.069L258.176 80Zm.41-3.41h4.465v.938h-4.465v-.937Zm7.342 3.41v-8.727h2.949c.682 0 1.241.116 1.679.35.437.23.761.546.971.95.211.403.316.862.316 1.376 0 .514-.105.97-.316 1.368-.21.398-.532.71-.967.937-.435.225-.99.337-1.666.337h-2.387v-.955h2.353c.466 0 .841-.068 1.125-.204.287-.136.494-.33.622-.58a1.94 1.94 0 0 0 .196-.903c0-.35-.065-.655-.196-.916a1.339 1.339 0 0 0-.627-.605c-.286-.145-.666-.218-1.137-.218h-1.858V80h-1.057Zm4.108-3.92 2.148 3.92h-1.228l-2.113-3.92h1.193Zm4.625-4.807V80h-1.057v-8.727h1.057Zm9.482 4.363c0 .92-.166 1.716-.498 2.387-.333.67-.789 1.187-1.368 1.55-.58.365-1.242.546-1.986.546s-1.406-.181-1.986-.545c-.58-.364-1.035-.88-1.368-1.551-.332-.67-.498-1.466-.498-2.387 0-.92.166-1.715.498-2.386.333-.67.788-1.188 1.368-1.551.58-.364 1.242-.546 1.986-.546s1.406.182 1.986.546c.579.364 1.035.88 1.368 1.551.332.67.498 1.466.498 2.386Zm-1.023 0c0-.755-.126-1.393-.379-1.913-.25-.52-.589-.913-1.018-1.18a2.643 2.643 0 0 0-1.432-.401 2.67 2.67 0 0 0-1.436.4c-.426.268-.766.661-1.019 1.181-.25.52-.375 1.158-.375 1.913 0 .756.125 1.394.375 1.914.253.52.593.913 1.019 1.18.429.267.907.4 1.436.4.528 0 1.006-.133 1.432-.4.429-.267.768-.66 1.018-1.18.253-.52.379-1.158.379-1.914Z"/>
  <defs>
    <filter id="a" width="506" height="488" x="0" y="0" color-interpolation-filters="sRGB" filterUnits="userSpaceOnUse">
      <feFlood flood-opacity="0" result="BackgroundImageFix"/>
      <feColorMatrix in="SourceAlpha" result="hardAlpha" values="0 0 0 0 0 0 0 0 0 0 0 0 0 0 0 0 0 0 127 0"/>
      <feOffset dy="4"/>
      <feGaussianBlur stdDeviation="2"/>
      <feComposite in2="hardAlpha" operator="out"/>
      <feColorMatrix values="0 0 0 0 0 0 0 0 0 0 0 0 0 0 0 0 0 0 0.25 0"/>
      <feBlend in2="BackgroundImageFix" result="effect1_dropShadow_19_28"/>
      <feBlend in="SourceGraphic" in2="effect1_dropShadow_19_28" result="shape"/>
    </filter>
  </defs>
</svg>
